<svg width="3000" height="3000" viewBox="0 0 3000 3000" fill="none" xmlns="http://www.w3.org/2000/svg">
<g clip-path="url(#clip0_340_91)">
<path d="M0.5 867.025L1488.99 1515.64C1488.97 1515.7 1488.94 1515.75 1488.92 1515.8L0.5 1041.09V867.025Z" fill="#F1863C" stroke="black"/>
<path d="M0.5 2815.4V2569.99L1489.68 1526.33C1489.73 1526.41 1489.78 1526.49 1489.82 1526.57L0.5 2815.4Z" fill="#F1863A" stroke="black"/>
<path d="M0.5 463.386L1490 1513.75C1489.97 1513.79 1489.94 1513.84 1489.91 1513.88L0.5 675.511V463.386Z" fill="#F1BC0E" stroke="black"/>
<path d="M0.5 1205.47L1488.37 1517.54C1488.35 1517.6 1488.34 1517.67 1488.33 1517.73L0.5 1361.47V1205.47Z" fill="#D5A49E" stroke="black"/>
<path d="M0.5 2354.89V2164.45L1488.7 1524.2C1488.73 1524.28 1488.75 1524.36 1488.78 1524.44L0.5 2354.89Z" fill="#E4AFAA" stroke="black"/>
<path d="M0.5 1667.22V1515.09L1488.05 1519.81C1488.05 1519.88 1488.04 1519.94 1488.04 1520.01L0.5 1667.22Z" fill="#ED6B7B" stroke="black"/>
<path d="M0.5 1988.71V1825.16L1488.18 1522.12C1488.19 1522.2 1488.21 1522.28 1488.22 1522.35L0.5 1988.71Z" fill="#F3A212" stroke="black"/>
<path d="M22.7193 0.5H70.1841L1491.47 1511.92C1491.43 1511.96 1491.4 1512 1491.36 1512.03L0.5 217.232V22.8465C1.41045 21.924 2.32064 21.0012 3.23079 20.0785C9.70201 13.5179 16.1714 6.95911 22.7193 0.5Z" fill="#DEBCAC" stroke="black"/>
<path d="M1502.63 1508.63C1502.59 1508.62 1502.54 1508.61 1502.5 1508.6L1725.24 0.5H1882.33L1502.63 1508.63Z" fill="#EC6624" stroke="black"/>
<path d="M2228.89 0.5L1504.77 1509.33C1504.73 1509.31 1504.69 1509.29 1504.65 1509.27L2050.41 0.5H2228.89Z" fill="#F0BB0F" stroke="black"/>
<path d="M1506.72 1510.4L2428.35 0.5H2650.68L1506.84 1510.48C1506.8 1510.46 1506.76 1510.43 1506.72 1510.4Z" fill="#F089A3" stroke="black"/>
<path d="M1570.63 0.5L1500.25 1508.33C1500.17 1508.33 1500.09 1508.33 1500 1508.33C1499.96 1508.33 1499.92 1508.33 1499.88 1508.33L1420.57 0.5H1570.63Z" fill="#DEBCAC" stroke="black"/>
<path d="M1495.37 1509.27C1495.33 1509.29 1495.28 1509.31 1495.24 1509.33L760.379 0.5H939.719L1495.37 1509.27Z" fill="#F4A30F" stroke="black"/>
<path d="M1497.55 1508.59C1497.51 1508.6 1497.47 1508.61 1497.42 1508.62L1108.39 0.5H1266.06L1497.55 1508.59Z" fill="#F1863C" stroke="black"/>
<path d="M1493.23 1510.44L335.355 0.5H559.763L1493.35 1510.37C1493.34 1510.37 1493.33 1510.38 1493.33 1510.38C1493.3 1510.4 1493.26 1510.42 1493.23 1510.44Z" fill="#F089A3" stroke="black"/>
<path d="M1510.35 1526.27L2999.5 2564.97V2809.73L1510.22 1526.5C1510.26 1526.43 1510.31 1526.35 1510.35 1526.27Z" fill="#F1BC0E" stroke="black"/>
<path d="M1511.35 1524.03L2999.5 2160.31V2350.2L1511.28 1524.26C1511.3 1524.19 1511.33 1524.11 1511.35 1524.03Z" fill="#F1863C" stroke="black"/>
<path d="M1511.85 1521.91L2999.5 1821.28V1984.57L1511.82 1522.12C1511.83 1522.05 1511.84 1521.98 1511.85 1521.91Z" fill="#ED6C84" stroke="black"/>
<path d="M2999.5 1351.84L1511.64 1517.54C1511.62 1517.48 1511.61 1517.42 1511.6 1517.36L2999.5 1195.31V1351.84Z" fill="#EE702E" stroke="black"/>
<path d="M2999.5 1504.47V1664.04L1512.57 1520.04L2999.5 1504.47Z" fill="#E7AFAA" stroke="black"/>
<path d="M2999.5 1030.59L1510.99 1515.6C1510.97 1515.55 1510.95 1515.5 1510.93 1515.45L2999.5 855.79V1030.59Z" fill="#F3A212" stroke="black"/>
<path d="M1508.54 1511.92L2913.37 0.5H2978.06C2984.14 6.48399 2990.12 12.5738 2996.11 18.6683C2997.24 19.8187 2998.37 20.9692 2999.5 22.1193V201.627L1508.64 1512.02C1508.6 1511.99 1508.57 1511.95 1508.54 1511.92Z" fill="#F1863A" stroke="black"/>
<path d="M2999.5 663.35L1510.06 1513.84C1510.03 1513.8 1510.01 1513.75 1509.98 1513.71L2999.5 450.15V663.35Z" fill="#E4AFAA" stroke="black"/>
<path d="M1508.76 1528.42L2902.18 2999.5H2644.1L1508.56 1528.62C1508.63 1528.56 1508.7 1528.49 1508.76 1528.42Z" fill="#DEBCAC" stroke="black"/>
<path d="M1276.87 2999.5L1498.29 1532.12C1498.4 1532.13 1498.52 1532.15 1498.63 1532.16L1426.43 2999.5H1276.87Z" fill="#DEBCAC" stroke="black"/>
<path d="M1119.75 2999.5H956.321L1495.68 1531.44C1495.78 1531.48 1495.88 1531.52 1495.99 1531.56L1119.75 2999.5Z" fill="#EC6624" stroke="black"/>
<path d="M1493.33 1530.21C1493.42 1530.27 1493.51 1530.33 1493.6 1530.39L777.936 2999.51H583.658L1493.33 1530.21Z" fill="#F0BB0F" stroke="black"/>
<path d="M361.026 2999.5H104.17L1491.27 1528.44C1491.34 1528.51 1491.41 1528.59 1491.48 1528.66L361.026 2999.5Z" fill="#F089A3" stroke="black"/>
<path d="M2226.55 2999.51L1506.45 1530.35C1506.54 1530.29 1506.63 1530.24 1506.71 1530.18L2421.16 2999.51H2226.55Z" fill="#F089A3" stroke="black"/>
<path d="M1504.42 1531.4L2048 2999.5H1884.18L1504.1 1531.52C1504.2 1531.48 1504.31 1531.44 1504.42 1531.4Z" fill="#EC6624" stroke="black"/>
<path d="M1501.35 1532.16C1501.46 1532.15 1501.57 1532.13 1501.67 1532.12L1726.57 2999.5H1576.9L1501.35 1532.16Z" fill="#E4AFAA" stroke="black"/>
</g>
<defs>
<clipPath id="clip0_340_91">
<rect width="3000" height="3000" fill="white"/>
</clipPath>
</defs>
</svg>
